<mxfile modified="2019-11-18T19:49:28.966Z" host="www.draw.io" agent="Mozilla/5.0 (Windows NT 10.0; Win64; x64) AppleWebKit/537.36 (KHTML, like Gecko) Chrome/77.0.3865.90 Safari/537.36" etag="Lv_Xdx3SO0pw2GbQQ4YS" version="12.2.6" type="github" pages="1">
  <diagram id="zsQBbFG0kuu6M4jyXEDq" name="Page-1">
    <mxGraphModel dx="928" dy="519" grid="1" gridSize="10" guides="1" tooltips="1" connect="1" arrows="1" fold="1" page="1" pageScale="1" pageWidth="827" pageHeight="1169" math="0" shadow="0">
      <root>
        <mxCell id="0"/>
        <mxCell id="1" parent="0"/>
        <mxCell id="V46HuXaM36CB3ubPjc8F-28" value="BUS DE EVENTOS" style="shape=rect;fillColor=none;strokeColor=#0000FF;dashed=1;fontSize=14;align=center;html=1;verticalAlign=top;fontColor=#0078D7;whiteSpace=wrap;" parent="1" vertex="1">
          <mxGeometry x="76" y="327" width="480" height="93" as="geometry"/>
        </mxCell>
        <mxCell id="A6u8_OQ2MPhfNV7zsOyL-92" style="edgeStyle=none;rounded=0;orthogonalLoop=1;jettySize=auto;html=1;entryX=0.5;entryY=0;entryDx=0;entryDy=0;entryPerimeter=0;" parent="1" source="V46HuXaM36CB3ubPjc8F-14" target="A6u8_OQ2MPhfNV7zsOyL-15" edge="1">
          <mxGeometry relative="1" as="geometry"/>
        </mxCell>
        <mxCell id="V46HuXaM36CB3ubPjc8F-14" value="" style="shadow=0;dashed=0;html=1;strokeColor=none;labelPosition=center;verticalLabelPosition=bottom;verticalAlign=top;align=center;shape=mxgraph.mscae.cloud.event_hubs;fillColor=#0079D6;pointerEvents=1;" parent="1" vertex="1">
          <mxGeometry x="261.5" y="354" width="49" height="50" as="geometry"/>
        </mxCell>
        <mxCell id="A6u8_OQ2MPhfNV7zsOyL-93" style="edgeStyle=none;rounded=0;orthogonalLoop=1;jettySize=auto;html=1;entryX=0.5;entryY=0;entryDx=0;entryDy=0;entryPerimeter=0;" parent="1" source="V46HuXaM36CB3ubPjc8F-15" target="A6u8_OQ2MPhfNV7zsOyL-16" edge="1">
          <mxGeometry relative="1" as="geometry"/>
        </mxCell>
        <mxCell id="V46HuXaM36CB3ubPjc8F-15" value="" style="shadow=0;dashed=0;html=1;strokeColor=none;labelPosition=center;verticalLabelPosition=bottom;verticalAlign=top;align=center;shape=mxgraph.mscae.cloud.event_hubs;fillColor=#0079D6;pointerEvents=1;" parent="1" vertex="1">
          <mxGeometry x="314.5" y="354" width="49" height="50" as="geometry"/>
        </mxCell>
        <mxCell id="A6u8_OQ2MPhfNV7zsOyL-94" style="edgeStyle=none;rounded=0;orthogonalLoop=1;jettySize=auto;html=1;entryX=0.5;entryY=0;entryDx=0;entryDy=0;entryPerimeter=0;" parent="1" source="V46HuXaM36CB3ubPjc8F-16" target="A6u8_OQ2MPhfNV7zsOyL-17" edge="1">
          <mxGeometry relative="1" as="geometry"/>
        </mxCell>
        <mxCell id="V46HuXaM36CB3ubPjc8F-16" value="" style="shadow=0;dashed=0;html=1;strokeColor=none;labelPosition=center;verticalLabelPosition=bottom;verticalAlign=top;align=center;shape=mxgraph.mscae.cloud.event_hubs;fillColor=#0079D6;pointerEvents=1;" parent="1" vertex="1">
          <mxGeometry x="368.5" y="354" width="49" height="50" as="geometry"/>
        </mxCell>
        <mxCell id="V46HuXaM36CB3ubPjc8F-18" value="Sistemas Legados" style="shape=rect;fillColor=none;strokeColor=#0000FF;dashed=1;fontSize=14;align=center;html=1;verticalAlign=top;fontColor=#0078D7;whiteSpace=wrap;" parent="1" vertex="1">
          <mxGeometry x="30" y="40" width="570" height="220" as="geometry"/>
        </mxCell>
        <mxCell id="V46HuXaM36CB3ubPjc8F-19" value="Sistema de Cuenta Unica" style="shape=rect;fillColor=none;strokeColor=#0000FF;dashed=1;fontSize=14;align=center;html=1;verticalAlign=top;fontColor=#0078D7;whiteSpace=wrap;" parent="1" vertex="1">
          <mxGeometry x="125" y="685" width="390" height="115" as="geometry"/>
        </mxCell>
        <mxCell id="V46HuXaM36CB3ubPjc8F-20" value="Agentes Extractores de Datos" style="shape=rect;fillColor=none;strokeColor=#0000FF;dashed=1;fontSize=14;align=center;html=1;verticalAlign=top;fontColor=#0078D7;whiteSpace=wrap;" parent="1" vertex="1">
          <mxGeometry x="150" y="484" width="330" height="86" as="geometry"/>
        </mxCell>
        <mxCell id="A6u8_OQ2MPhfNV7zsOyL-11" style="edgeStyle=orthogonalEdgeStyle;curved=1;rounded=0;orthogonalLoop=1;jettySize=auto;html=1;exitX=0.55;exitY=0.9;exitDx=0;exitDy=0;exitPerimeter=0;entryX=0.5;entryY=0;entryDx=0;entryDy=0;entryPerimeter=0;" parent="1" source="A6u8_OQ2MPhfNV7zsOyL-2" target="V46HuXaM36CB3ubPjc8F-14" edge="1">
          <mxGeometry relative="1" as="geometry"/>
        </mxCell>
        <mxCell id="A6u8_OQ2MPhfNV7zsOyL-2" value="" style="verticalLabelPosition=bottom;html=1;verticalAlign=top;align=center;strokeColor=none;fillColor=#3333FF;shape=mxgraph.azure.automation;pointerEvents=1;" parent="1" vertex="1">
          <mxGeometry x="310.5" y="187.5" width="33" height="30" as="geometry"/>
        </mxCell>
        <mxCell id="A6u8_OQ2MPhfNV7zsOyL-9" style="edgeStyle=orthogonalEdgeStyle;curved=1;rounded=0;orthogonalLoop=1;jettySize=auto;html=1;exitX=0.55;exitY=0.9;exitDx=0;exitDy=0;exitPerimeter=0;entryX=0.5;entryY=0;entryDx=0;entryDy=0;entryPerimeter=0;" parent="1" source="A6u8_OQ2MPhfNV7zsOyL-3" target="V46HuXaM36CB3ubPjc8F-15" edge="1">
          <mxGeometry relative="1" as="geometry">
            <Array as="points">
              <mxPoint x="424" y="290"/>
              <mxPoint x="339" y="290"/>
            </Array>
          </mxGeometry>
        </mxCell>
        <mxCell id="A6u8_OQ2MPhfNV7zsOyL-3" value="" style="verticalLabelPosition=bottom;html=1;verticalAlign=top;align=center;strokeColor=none;fillColor=#3333FF;shape=mxgraph.azure.automation;pointerEvents=1;" parent="1" vertex="1">
          <mxGeometry x="398.5" y="187.5" width="33" height="30" as="geometry"/>
        </mxCell>
        <mxCell id="A6u8_OQ2MPhfNV7zsOyL-12" style="edgeStyle=orthogonalEdgeStyle;curved=1;rounded=0;orthogonalLoop=1;jettySize=auto;html=1;exitX=0.55;exitY=0.9;exitDx=0;exitDy=0;exitPerimeter=0;entryX=0.5;entryY=0;entryDx=0;entryDy=0;entryPerimeter=0;" parent="1" source="A6u8_OQ2MPhfNV7zsOyL-4" target="V46HuXaM36CB3ubPjc8F-16" edge="1">
          <mxGeometry relative="1" as="geometry">
            <Array as="points">
              <mxPoint x="502" y="300"/>
              <mxPoint x="393" y="300"/>
            </Array>
          </mxGeometry>
        </mxCell>
        <mxCell id="A6u8_OQ2MPhfNV7zsOyL-4" value="" style="verticalLabelPosition=bottom;html=1;verticalAlign=top;align=center;strokeColor=none;fillColor=#3333FF;shape=mxgraph.azure.automation;pointerEvents=1;" parent="1" vertex="1">
          <mxGeometry x="477.5" y="187.5" width="33" height="30" as="geometry"/>
        </mxCell>
        <mxCell id="A6u8_OQ2MPhfNV7zsOyL-91" style="edgeStyle=none;rounded=0;orthogonalLoop=1;jettySize=auto;html=1;entryX=0.5;entryY=0;entryDx=0;entryDy=0;entryPerimeter=0;" parent="1" source="A6u8_OQ2MPhfNV7zsOyL-6" target="A6u8_OQ2MPhfNV7zsOyL-18" edge="1">
          <mxGeometry relative="1" as="geometry"/>
        </mxCell>
        <mxCell id="A6u8_OQ2MPhfNV7zsOyL-6" value="" style="shadow=0;dashed=0;html=1;strokeColor=none;labelPosition=center;verticalLabelPosition=bottom;verticalAlign=top;align=center;shape=mxgraph.mscae.cloud.event_hubs;fillColor=#0079D6;pointerEvents=1;" parent="1" vertex="1">
          <mxGeometry x="208.5" y="354" width="49" height="50" as="geometry"/>
        </mxCell>
        <mxCell id="A6u8_OQ2MPhfNV7zsOyL-24" style="edgeStyle=orthogonalEdgeStyle;curved=1;rounded=0;orthogonalLoop=1;jettySize=auto;html=1;exitX=0.5;exitY=1;exitDx=0;exitDy=0;exitPerimeter=0;entryX=0.499;entryY=0.172;entryDx=0;entryDy=0;entryPerimeter=0;" parent="1" source="A6u8_OQ2MPhfNV7zsOyL-14" target="A6u8_OQ2MPhfNV7zsOyL-23" edge="1">
          <mxGeometry relative="1" as="geometry"/>
        </mxCell>
        <mxCell id="A6u8_OQ2MPhfNV7zsOyL-14" value="" style="shadow=0;dashed=0;html=1;strokeColor=none;labelPosition=center;verticalLabelPosition=bottom;verticalAlign=top;align=center;shape=mxgraph.mscae.cloud.vpn_gateway2;fillColor=#0079D6;pointerEvents=1;" parent="1" vertex="1">
          <mxGeometry x="291.5" y="622.5" width="45" height="50" as="geometry"/>
        </mxCell>
        <mxCell id="A6u8_OQ2MPhfNV7zsOyL-22" style="edgeStyle=orthogonalEdgeStyle;curved=1;rounded=0;orthogonalLoop=1;jettySize=auto;html=1;exitX=0.5;exitY=1;exitDx=0;exitDy=0;exitPerimeter=0;" parent="1" source="A6u8_OQ2MPhfNV7zsOyL-15" target="A6u8_OQ2MPhfNV7zsOyL-14" edge="1">
          <mxGeometry relative="1" as="geometry"/>
        </mxCell>
        <mxCell id="A6u8_OQ2MPhfNV7zsOyL-15" value="" style="shadow=0;dashed=0;html=1;strokeColor=none;fillColor=#0079D6;labelPosition=center;verticalLabelPosition=bottom;verticalAlign=top;align=center;shape=mxgraph.azure.worker_role;pointerEvents=1;" parent="1" vertex="1">
          <mxGeometry x="250" y="510" width="50" height="40" as="geometry"/>
        </mxCell>
        <mxCell id="A6u8_OQ2MPhfNV7zsOyL-21" style="edgeStyle=orthogonalEdgeStyle;curved=1;rounded=0;orthogonalLoop=1;jettySize=auto;html=1;exitX=0.5;exitY=1;exitDx=0;exitDy=0;exitPerimeter=0;entryX=0.5;entryY=0;entryDx=0;entryDy=0;entryPerimeter=0;" parent="1" source="A6u8_OQ2MPhfNV7zsOyL-16" target="A6u8_OQ2MPhfNV7zsOyL-14" edge="1">
          <mxGeometry relative="1" as="geometry"/>
        </mxCell>
        <mxCell id="A6u8_OQ2MPhfNV7zsOyL-16" value="" style="shadow=0;dashed=0;html=1;strokeColor=none;fillColor=#0079D6;labelPosition=center;verticalLabelPosition=bottom;verticalAlign=top;align=center;shape=mxgraph.azure.worker_role;pointerEvents=1;" parent="1" vertex="1">
          <mxGeometry x="313" y="510" width="50" height="40" as="geometry"/>
        </mxCell>
        <mxCell id="A6u8_OQ2MPhfNV7zsOyL-20" style="edgeStyle=orthogonalEdgeStyle;curved=1;rounded=0;orthogonalLoop=1;jettySize=auto;html=1;exitX=0.5;exitY=1;exitDx=0;exitDy=0;exitPerimeter=0;entryX=0.5;entryY=0;entryDx=0;entryDy=0;entryPerimeter=0;" parent="1" source="A6u8_OQ2MPhfNV7zsOyL-17" target="A6u8_OQ2MPhfNV7zsOyL-14" edge="1">
          <mxGeometry relative="1" as="geometry"/>
        </mxCell>
        <mxCell id="A6u8_OQ2MPhfNV7zsOyL-17" value="" style="shadow=0;dashed=0;html=1;strokeColor=none;fillColor=#0079D6;labelPosition=center;verticalLabelPosition=bottom;verticalAlign=top;align=center;shape=mxgraph.azure.worker_role;pointerEvents=1;" parent="1" vertex="1">
          <mxGeometry x="376" y="510" width="50" height="40" as="geometry"/>
        </mxCell>
        <mxCell id="A6u8_OQ2MPhfNV7zsOyL-19" style="edgeStyle=orthogonalEdgeStyle;curved=1;rounded=0;orthogonalLoop=1;jettySize=auto;html=1;entryX=0.5;entryY=0;entryDx=0;entryDy=0;entryPerimeter=0;" parent="1" source="A6u8_OQ2MPhfNV7zsOyL-18" target="A6u8_OQ2MPhfNV7zsOyL-14" edge="1">
          <mxGeometry relative="1" as="geometry">
            <Array as="points">
              <mxPoint x="216" y="590"/>
              <mxPoint x="314" y="590"/>
            </Array>
          </mxGeometry>
        </mxCell>
        <mxCell id="A6u8_OQ2MPhfNV7zsOyL-18" value="" style="shadow=0;dashed=0;html=1;strokeColor=none;fillColor=#0079D6;labelPosition=center;verticalLabelPosition=bottom;verticalAlign=top;align=center;shape=mxgraph.azure.worker_role;pointerEvents=1;" parent="1" vertex="1">
          <mxGeometry x="191" y="510" width="50" height="40" as="geometry"/>
        </mxCell>
        <mxCell id="A6u8_OQ2MPhfNV7zsOyL-23" value="" style="shadow=0;dashed=0;html=1;strokeColor=none;labelPosition=center;verticalLabelPosition=bottom;verticalAlign=top;align=center;shape=mxgraph.mscae.cloud.api_management;fillColor=#0079D6;pointerEvents=1;" parent="1" vertex="1">
          <mxGeometry x="289" y="710" width="50" height="45" as="geometry"/>
        </mxCell>
        <mxCell id="A6u8_OQ2MPhfNV7zsOyL-31" style="edgeStyle=orthogonalEdgeStyle;curved=1;rounded=0;orthogonalLoop=1;jettySize=auto;html=1;entryX=0.5;entryY=0;entryDx=0;entryDy=0;entryPerimeter=0;exitX=0.55;exitY=0.9;exitDx=0;exitDy=0;exitPerimeter=0;" parent="1" source="Fewnuq3fGaU2nX_JWRHS-8" target="A6u8_OQ2MPhfNV7zsOyL-6" edge="1">
          <mxGeometry relative="1" as="geometry">
            <Array as="points">
              <mxPoint x="135" y="215"/>
              <mxPoint x="135" y="290"/>
              <mxPoint x="233" y="290"/>
            </Array>
          </mxGeometry>
        </mxCell>
        <mxCell id="A6u8_OQ2MPhfNV7zsOyL-26" value="" style="shadow=0;dashed=0;html=1;strokeColor=none;fillColor=#0079D6;labelPosition=center;verticalLabelPosition=bottom;verticalAlign=top;align=center;shape=mxgraph.azure.worker_role;pointerEvents=1;" parent="1" vertex="1">
          <mxGeometry x="91" y="120" width="70" height="55" as="geometry"/>
        </mxCell>
        <mxCell id="A6u8_OQ2MPhfNV7zsOyL-27" value="Plataforma Unica" style="text;html=1;resizable=0;autosize=1;align=center;verticalAlign=middle;points=[];fillColor=none;strokeColor=none;rounded=0;" parent="1" vertex="1">
          <mxGeometry x="71" y="92.5" width="110" height="20" as="geometry"/>
        </mxCell>
        <mxCell id="A6u8_OQ2MPhfNV7zsOyL-28" value="Pago en Linea" style="text;html=1;resizable=0;autosize=1;align=center;verticalAlign=middle;points=[];fillColor=none;strokeColor=none;rounded=0;" parent="1" vertex="1">
          <mxGeometry x="182" y="92.5" width="90" height="20" as="geometry"/>
        </mxCell>
        <mxCell id="A6u8_OQ2MPhfNV7zsOyL-29" value="Intranet / SOL" style="text;html=1;resizable=0;autosize=1;align=center;verticalAlign=middle;points=[];fillColor=none;strokeColor=none;rounded=0;" parent="1" vertex="1">
          <mxGeometry x="268" y="92.5" width="90" height="20" as="geometry"/>
        </mxCell>
        <mxCell id="A6u8_OQ2MPhfNV7zsOyL-30" value="SIRAT /SIDCOT" style="text;html=1;resizable=0;autosize=1;align=center;verticalAlign=middle;points=[];fillColor=none;strokeColor=none;rounded=0;" parent="1" vertex="1">
          <mxGeometry x="443" y="92.5" width="100" height="20" as="geometry"/>
        </mxCell>
        <mxCell id="A6u8_OQ2MPhfNV7zsOyL-67" value="" style="group" parent="1" vertex="1" connectable="0">
          <mxGeometry x="165" y="276" width="28" height="30" as="geometry"/>
        </mxCell>
        <mxCell id="A6u8_OQ2MPhfNV7zsOyL-63" value="" style="group;movable=0;resizable=0;rotatable=0;deletable=0;editable=0;connectable=0;" parent="A6u8_OQ2MPhfNV7zsOyL-67" vertex="1" connectable="0">
          <mxGeometry width="28" height="30" as="geometry"/>
        </mxCell>
        <mxCell id="A6u8_OQ2MPhfNV7zsOyL-62" value="" style="group;movable=0;resizable=0;rotatable=0;deletable=0;editable=0;connectable=0;" parent="A6u8_OQ2MPhfNV7zsOyL-63" vertex="1" connectable="0">
          <mxGeometry width="28" height="30" as="geometry"/>
        </mxCell>
        <mxCell id="A6u8_OQ2MPhfNV7zsOyL-60" value="" style="group;movable=1;resizable=1;rotatable=1;deletable=1;editable=1;connectable=1;" parent="A6u8_OQ2MPhfNV7zsOyL-62" vertex="1" connectable="0">
          <mxGeometry width="28" height="30" as="geometry"/>
        </mxCell>
        <mxCell id="A6u8_OQ2MPhfNV7zsOyL-59" value="" style="group;movable=0;resizable=0;rotatable=0;deletable=0;editable=0;connectable=0;" parent="A6u8_OQ2MPhfNV7zsOyL-60" vertex="1" connectable="0">
          <mxGeometry width="28" height="30" as="geometry"/>
        </mxCell>
        <mxCell id="A6u8_OQ2MPhfNV7zsOyL-53" value="" style="group;movable=0;resizable=0;rotatable=0;deletable=0;editable=0;connectable=0;" parent="A6u8_OQ2MPhfNV7zsOyL-59" vertex="1" connectable="0">
          <mxGeometry width="28" height="30" as="geometry"/>
        </mxCell>
        <mxCell id="A6u8_OQ2MPhfNV7zsOyL-54" value="" style="strokeWidth=2;dashed=0;align=center;fontSize=8;shape=ellipse;fillColor=#808080;strokeColor=none;movable=0;resizable=0;rotatable=0;deletable=0;editable=0;connectable=0;" parent="A6u8_OQ2MPhfNV7zsOyL-53" vertex="1">
          <mxGeometry width="12" height="12" as="geometry"/>
        </mxCell>
        <mxCell id="A6u8_OQ2MPhfNV7zsOyL-55" value="E" style="strokeWidth=2;dashed=0;align=center;fontSize=8;shape=rect;fillColor=#83BEFF;strokeColor=#000000;fontStyle=1;movable=0;resizable=0;rotatable=0;deletable=0;editable=0;connectable=0;" parent="A6u8_OQ2MPhfNV7zsOyL-53" vertex="1">
          <mxGeometry x="16" y="18" width="12" height="12" as="geometry"/>
        </mxCell>
        <mxCell id="A6u8_OQ2MPhfNV7zsOyL-56" value="" style="edgeStyle=orthogonalEdgeStyle;rounded=0;exitX=0;exitY=0.5;endArrow=none;dashed=0;html=1;strokeColor=#808080;strokeWidth=2;movable=0;resizable=0;rotatable=0;deletable=0;editable=0;connectable=0;" parent="A6u8_OQ2MPhfNV7zsOyL-53" source="A6u8_OQ2MPhfNV7zsOyL-55" target="A6u8_OQ2MPhfNV7zsOyL-54" edge="1">
          <mxGeometry relative="1" as="geometry"/>
        </mxCell>
        <mxCell id="A6u8_OQ2MPhfNV7zsOyL-72" value="" style="group;movable=0;resizable=0;rotatable=0;deletable=0;editable=0;connectable=0;" parent="1" vertex="1" connectable="0">
          <mxGeometry x="196" y="279" width="28" height="30" as="geometry"/>
        </mxCell>
        <mxCell id="A6u8_OQ2MPhfNV7zsOyL-81" value="" style="edgeStyle=orthogonalEdgeStyle;rounded=0;exitX=0;exitY=0.5;endArrow=none;dashed=0;html=1;strokeColor=#808080;strokeWidth=2;" parent="1" source="A6u8_OQ2MPhfNV7zsOyL-83" target="A6u8_OQ2MPhfNV7zsOyL-82" edge="1">
          <mxGeometry relative="1" as="geometry"/>
        </mxCell>
        <mxCell id="A6u8_OQ2MPhfNV7zsOyL-82" value="" style="strokeWidth=2;dashed=0;align=center;fontSize=8;shape=ellipse;fillColor=#808080;strokeColor=none;" parent="1" vertex="1">
          <mxGeometry x="275" y="276" width="12" height="12" as="geometry"/>
        </mxCell>
        <mxCell id="A6u8_OQ2MPhfNV7zsOyL-83" value="E" style="strokeWidth=2;dashed=0;align=center;fontSize=8;shape=rect;fillColor=#83BEFF;strokeColor=#000000;fontStyle=1;" parent="1" vertex="1">
          <mxGeometry x="291" y="294" width="12" height="12" as="geometry"/>
        </mxCell>
        <mxCell id="A6u8_OQ2MPhfNV7zsOyL-84" value="" style="edgeStyle=orthogonalEdgeStyle;rounded=0;exitX=0;exitY=0.5;endArrow=none;dashed=0;html=1;strokeColor=#808080;strokeWidth=2;" parent="1" source="A6u8_OQ2MPhfNV7zsOyL-86" target="A6u8_OQ2MPhfNV7zsOyL-85" edge="1">
          <mxGeometry relative="1" as="geometry"/>
        </mxCell>
        <mxCell id="A6u8_OQ2MPhfNV7zsOyL-85" value="" style="strokeWidth=2;dashed=0;align=center;fontSize=8;shape=ellipse;fillColor=#808080;strokeColor=none;" parent="1" vertex="1">
          <mxGeometry x="444" y="276" width="12" height="12" as="geometry"/>
        </mxCell>
        <mxCell id="A6u8_OQ2MPhfNV7zsOyL-86" value="E" style="strokeWidth=2;dashed=0;align=center;fontSize=8;shape=rect;fillColor=#83BEFF;strokeColor=#000000;fontStyle=1;" parent="1" vertex="1">
          <mxGeometry x="460" y="294" width="12" height="12" as="geometry"/>
        </mxCell>
        <mxCell id="A6u8_OQ2MPhfNV7zsOyL-87" value="" style="edgeStyle=orthogonalEdgeStyle;rounded=0;exitX=0;exitY=0.5;endArrow=none;dashed=0;html=1;strokeColor=#808080;strokeWidth=2;" parent="1" source="A6u8_OQ2MPhfNV7zsOyL-89" target="A6u8_OQ2MPhfNV7zsOyL-88" edge="1">
          <mxGeometry relative="1" as="geometry"/>
        </mxCell>
        <mxCell id="A6u8_OQ2MPhfNV7zsOyL-88" value="" style="strokeWidth=2;dashed=0;align=center;fontSize=8;shape=ellipse;fillColor=#808080;strokeColor=none;" parent="1" vertex="1">
          <mxGeometry x="359" y="276" width="12" height="12" as="geometry"/>
        </mxCell>
        <mxCell id="A6u8_OQ2MPhfNV7zsOyL-89" value="E" style="strokeWidth=2;dashed=0;align=center;fontSize=8;shape=rect;fillColor=#83BEFF;strokeColor=#000000;fontStyle=1;" parent="1" vertex="1">
          <mxGeometry x="375" y="294" width="12" height="12" as="geometry"/>
        </mxCell>
        <mxCell id="A6u8_OQ2MPhfNV7zsOyL-95" value="" style="edgeStyle=orthogonalEdgeStyle;rounded=0;exitX=0;exitY=0.5;endArrow=none;dashed=0;html=1;strokeColor=#808080;strokeWidth=2;" parent="1" source="A6u8_OQ2MPhfNV7zsOyL-97" target="A6u8_OQ2MPhfNV7zsOyL-96" edge="1">
          <mxGeometry relative="1" as="geometry"/>
        </mxCell>
        <mxCell id="A6u8_OQ2MPhfNV7zsOyL-96" value="" style="strokeWidth=2;dashed=0;align=center;fontSize=8;shape=ellipse;fillColor=#808080;strokeColor=none;" parent="1" vertex="1">
          <mxGeometry x="205" y="450" width="12" height="12" as="geometry"/>
        </mxCell>
        <mxCell id="A6u8_OQ2MPhfNV7zsOyL-97" value="E" style="strokeWidth=2;dashed=0;align=center;fontSize=8;shape=rect;fillColor=#83BEFF;strokeColor=#000000;fontStyle=1;" parent="1" vertex="1">
          <mxGeometry x="221" y="468" width="12" height="12" as="geometry"/>
        </mxCell>
        <mxCell id="A6u8_OQ2MPhfNV7zsOyL-98" value="" style="edgeStyle=orthogonalEdgeStyle;rounded=0;exitX=0;exitY=0.5;endArrow=none;dashed=0;html=1;strokeColor=#808080;strokeWidth=2;" parent="1" source="A6u8_OQ2MPhfNV7zsOyL-100" target="A6u8_OQ2MPhfNV7zsOyL-99" edge="1">
          <mxGeometry relative="1" as="geometry"/>
        </mxCell>
        <mxCell id="A6u8_OQ2MPhfNV7zsOyL-99" value="" style="strokeWidth=2;dashed=0;align=center;fontSize=8;shape=ellipse;fillColor=#808080;strokeColor=none;" parent="1" vertex="1">
          <mxGeometry x="264" y="450" width="12" height="12" as="geometry"/>
        </mxCell>
        <mxCell id="A6u8_OQ2MPhfNV7zsOyL-100" value="E" style="strokeWidth=2;dashed=0;align=center;fontSize=8;shape=rect;fillColor=#83BEFF;strokeColor=#000000;fontStyle=1;" parent="1" vertex="1">
          <mxGeometry x="280" y="468" width="12" height="12" as="geometry"/>
        </mxCell>
        <mxCell id="A6u8_OQ2MPhfNV7zsOyL-101" value="" style="edgeStyle=orthogonalEdgeStyle;rounded=0;exitX=0;exitY=0.5;endArrow=none;dashed=0;html=1;strokeColor=#808080;strokeWidth=2;" parent="1" source="A6u8_OQ2MPhfNV7zsOyL-103" target="A6u8_OQ2MPhfNV7zsOyL-102" edge="1">
          <mxGeometry relative="1" as="geometry"/>
        </mxCell>
        <mxCell id="A6u8_OQ2MPhfNV7zsOyL-102" value="" style="strokeWidth=2;dashed=0;align=center;fontSize=8;shape=ellipse;fillColor=#808080;strokeColor=none;" parent="1" vertex="1">
          <mxGeometry x="325" y="450" width="12" height="12" as="geometry"/>
        </mxCell>
        <mxCell id="A6u8_OQ2MPhfNV7zsOyL-103" value="E" style="strokeWidth=2;dashed=0;align=center;fontSize=8;shape=rect;fillColor=#83BEFF;strokeColor=#000000;fontStyle=1;" parent="1" vertex="1">
          <mxGeometry x="341" y="468" width="12" height="12" as="geometry"/>
        </mxCell>
        <mxCell id="A6u8_OQ2MPhfNV7zsOyL-104" value="" style="edgeStyle=orthogonalEdgeStyle;rounded=0;exitX=0;exitY=0.5;endArrow=none;dashed=0;html=1;strokeColor=#808080;strokeWidth=2;" parent="1" source="A6u8_OQ2MPhfNV7zsOyL-106" target="A6u8_OQ2MPhfNV7zsOyL-105" edge="1">
          <mxGeometry relative="1" as="geometry"/>
        </mxCell>
        <mxCell id="A6u8_OQ2MPhfNV7zsOyL-105" value="" style="strokeWidth=2;dashed=0;align=center;fontSize=8;shape=ellipse;fillColor=#808080;strokeColor=none;" parent="1" vertex="1">
          <mxGeometry x="387" y="450" width="12" height="12" as="geometry"/>
        </mxCell>
        <mxCell id="A6u8_OQ2MPhfNV7zsOyL-106" value="E" style="strokeWidth=2;dashed=0;align=center;fontSize=8;shape=rect;fillColor=#83BEFF;strokeColor=#000000;fontStyle=1;" parent="1" vertex="1">
          <mxGeometry x="403" y="468" width="12" height="12" as="geometry"/>
        </mxCell>
        <mxCell id="Fewnuq3fGaU2nX_JWRHS-10" style="edgeStyle=orthogonalEdgeStyle;curved=1;rounded=0;orthogonalLoop=1;jettySize=auto;html=1;entryX=0.864;entryY=0.075;entryDx=0;entryDy=0;entryPerimeter=0;" edge="1" parent="1" source="Fewnuq3fGaU2nX_JWRHS-1" target="A6u8_OQ2MPhfNV7zsOyL-6">
          <mxGeometry relative="1" as="geometry"/>
        </mxCell>
        <mxCell id="Fewnuq3fGaU2nX_JWRHS-1" value="" style="verticalLabelPosition=bottom;html=1;verticalAlign=top;align=center;strokeColor=none;fillColor=#3333FF;shape=mxgraph.azure.automation;pointerEvents=1;" vertex="1" parent="1">
          <mxGeometry x="210" y="190" width="33" height="30" as="geometry"/>
        </mxCell>
        <mxCell id="Fewnuq3fGaU2nX_JWRHS-2" value="" style="shadow=0;dashed=0;html=1;strokeColor=none;fillColor=#0079D6;labelPosition=center;verticalLabelPosition=bottom;verticalAlign=top;align=center;shape=mxgraph.azure.worker_role;pointerEvents=1;" vertex="1" parent="1">
          <mxGeometry x="193" y="122.5" width="70" height="55" as="geometry"/>
        </mxCell>
        <mxCell id="Fewnuq3fGaU2nX_JWRHS-3" value="" style="shadow=0;dashed=0;html=1;strokeColor=none;fillColor=#0079D6;labelPosition=center;verticalLabelPosition=bottom;verticalAlign=top;align=center;shape=mxgraph.azure.worker_role;pointerEvents=1;" vertex="1" parent="1">
          <mxGeometry x="283" y="122.5" width="70" height="55" as="geometry"/>
        </mxCell>
        <mxCell id="Fewnuq3fGaU2nX_JWRHS-4" value="" style="shadow=0;dashed=0;html=1;strokeColor=none;fillColor=#0079D6;labelPosition=center;verticalLabelPosition=bottom;verticalAlign=top;align=center;shape=mxgraph.azure.worker_role;pointerEvents=1;" vertex="1" parent="1">
          <mxGeometry x="373" y="120" width="70" height="55" as="geometry"/>
        </mxCell>
        <mxCell id="Fewnuq3fGaU2nX_JWRHS-5" value="" style="shadow=0;dashed=0;html=1;strokeColor=none;fillColor=#0079D6;labelPosition=center;verticalLabelPosition=bottom;verticalAlign=top;align=center;shape=mxgraph.azure.worker_role;pointerEvents=1;" vertex="1" parent="1">
          <mxGeometry x="457" y="120" width="70" height="55" as="geometry"/>
        </mxCell>
        <mxCell id="Fewnuq3fGaU2nX_JWRHS-8" value="" style="verticalLabelPosition=bottom;html=1;verticalAlign=top;align=center;strokeColor=none;fillColor=#3333FF;shape=mxgraph.azure.automation;pointerEvents=1;" vertex="1" parent="1">
          <mxGeometry x="109.5" y="187.5" width="33" height="30" as="geometry"/>
        </mxCell>
        <mxCell id="Fewnuq3fGaU2nX_JWRHS-9" value="RSIRAT" style="text;html=1;resizable=0;autosize=1;align=center;verticalAlign=middle;points=[];fillColor=none;strokeColor=none;rounded=0;" vertex="1" parent="1">
          <mxGeometry x="371" y="92.5" width="60" height="20" as="geometry"/>
        </mxCell>
        <mxCell id="Fewnuq3fGaU2nX_JWRHS-11" value="" style="group" vertex="1" connectable="0" parent="1">
          <mxGeometry x="222" y="276" width="28" height="30" as="geometry"/>
        </mxCell>
        <mxCell id="Fewnuq3fGaU2nX_JWRHS-12" value="" style="group;movable=0;resizable=0;rotatable=0;deletable=0;editable=0;connectable=0;" vertex="1" connectable="0" parent="Fewnuq3fGaU2nX_JWRHS-11">
          <mxGeometry width="28" height="30" as="geometry"/>
        </mxCell>
        <mxCell id="Fewnuq3fGaU2nX_JWRHS-13" value="" style="group;movable=0;resizable=0;rotatable=0;deletable=0;editable=0;connectable=0;" vertex="1" connectable="0" parent="Fewnuq3fGaU2nX_JWRHS-12">
          <mxGeometry width="28" height="30" as="geometry"/>
        </mxCell>
        <mxCell id="Fewnuq3fGaU2nX_JWRHS-14" value="" style="group;movable=1;resizable=1;rotatable=1;deletable=1;editable=1;connectable=1;" vertex="1" connectable="0" parent="Fewnuq3fGaU2nX_JWRHS-13">
          <mxGeometry width="28" height="30" as="geometry"/>
        </mxCell>
        <mxCell id="Fewnuq3fGaU2nX_JWRHS-15" value="" style="group;movable=0;resizable=0;rotatable=0;deletable=0;editable=0;connectable=0;" vertex="1" connectable="0" parent="Fewnuq3fGaU2nX_JWRHS-14">
          <mxGeometry width="28" height="30" as="geometry"/>
        </mxCell>
        <mxCell id="Fewnuq3fGaU2nX_JWRHS-16" value="" style="group;movable=0;resizable=0;rotatable=0;deletable=0;editable=0;connectable=0;" vertex="1" connectable="0" parent="Fewnuq3fGaU2nX_JWRHS-15">
          <mxGeometry width="28" height="30" as="geometry"/>
        </mxCell>
        <mxCell id="Fewnuq3fGaU2nX_JWRHS-17" value="" style="strokeWidth=2;dashed=0;align=center;fontSize=8;shape=ellipse;fillColor=#808080;strokeColor=none;movable=0;resizable=0;rotatable=0;deletable=0;editable=0;connectable=0;" vertex="1" parent="Fewnuq3fGaU2nX_JWRHS-16">
          <mxGeometry width="12" height="12" as="geometry"/>
        </mxCell>
        <mxCell id="Fewnuq3fGaU2nX_JWRHS-18" value="E" style="strokeWidth=2;dashed=0;align=center;fontSize=8;shape=rect;fillColor=#83BEFF;strokeColor=#000000;fontStyle=1;movable=0;resizable=0;rotatable=0;deletable=0;editable=0;connectable=0;" vertex="1" parent="Fewnuq3fGaU2nX_JWRHS-16">
          <mxGeometry x="16" y="18" width="12" height="12" as="geometry"/>
        </mxCell>
        <mxCell id="Fewnuq3fGaU2nX_JWRHS-19" value="" style="edgeStyle=orthogonalEdgeStyle;rounded=0;exitX=0;exitY=0.5;endArrow=none;dashed=0;html=1;strokeColor=#808080;strokeWidth=2;movable=0;resizable=0;rotatable=0;deletable=0;editable=0;connectable=0;" edge="1" parent="Fewnuq3fGaU2nX_JWRHS-16" source="Fewnuq3fGaU2nX_JWRHS-18" target="Fewnuq3fGaU2nX_JWRHS-17">
          <mxGeometry relative="1" as="geometry"/>
        </mxCell>
      </root>
    </mxGraphModel>
  </diagram>
</mxfile>
